<?xml version="1.0" encoding="utf-8"?>
<!-- Generator: Adobe Illustrator 24.3.0, SVG Export Plug-In . SVG Version: 6.00 Build 0)  -->
<svg version="1.1" id="Layer_1" xmlns="http://www.w3.org/2000/svg" xmlns:xlink="http://www.w3.org/1999/xlink" x="0px" y="0px"
	 viewBox="0 0 64 64" enable-background="new 0 0 64 64" xml:space="preserve">
<path fill="#CED04A" d="M61,53.1c0-2.2-1.8-4-4-4H7c-2.2,0-4,1.8-4,4c0,2.2,1.8,4,4,4h50C59.2,57.1,61,55.4,61,53.1z"/>
<path fill="#B6B841" d="M57,55.1H7c-1.9,0-3.4-1.3-3.9-3c-0.1,0.3-0.1,0.7-0.1,1c0,2.2,1.8,4,4,4h50c2.2,0,4-1.8,4-4
	c0-0.3-0.1-0.7-0.1-1C60.4,53.9,58.9,55.1,57,55.1z"/>
<path fill="#FCA947" d="M61,45.1c0-2.2-1.8-4-4-4H7c-2.2,0-4,1.8-4,4c0,2.2,1.8,4,4,4h50C59.2,49.1,61,47.4,61,45.1z"/>
<path fill="#E39840" d="M57,47.1H7c-1.9,0-3.4-1.3-3.9-3c-0.1,0.3-0.1,0.7-0.1,1c0,2.2,1.8,4,4,4h50c2.2,0,4-1.8,4-4
	c0-0.3-0.1-0.7-0.1-1C60.4,45.9,58.9,47.1,57,47.1z"/>
<path fill="#A2DCF5" d="M51.5,29.9c0.3-1.8,0-3.6-0.8-5.3c-1.1-2.2-3.2-3.8-5.6-4.3c-0.6-0.1-1.2,0.3-1.2,1c0,0.4,0.3,0.8,0.7,0.9
	c0.9,0.3,2.3,1.1,2.3,3.9c0,1-0.3,1.7-0.8,2.2c-1.5,1.5-4.2,0.2-4.2-1.9v-0.2c0,0-3.9,6.2-7.6,7H51L51.5,29.9z"/>
<path fill="#A2DCF5" d="M31.6,23.6c0.5-0.5-0.4-1.4-1.2-1.4c-0.3,0-0.6,0.1-0.8,0.3c-1.3,1.2-6,5.1-7.7,1.7c-1.6-3.2,2.5-7,4.3-8.4
	c0.6-0.5,1.1-1,1.7-1.5c0.9-0.9,2.1-2.1,3-3c0.7-0.7,1-1.6,1-2.5V8.6c0-1.9-1.6-3.5-3.5-3.5l-0.6,0c-1.3,0-2.5,0.9-2.8,2.2
	c-0.7,3.1-2.4,5.9-4.7,8.1l-0.5,0.4c-0.6,0.8-1.5,1.2-2.5,1c-1.7-0.3-2.5-2.2-1.6-3.7L18,9.8c0.6-0.9,0.3-2.1-0.6-2.7h0
	c-0.8-0.5-1.9-0.4-2.5,0.3L13.4,9C7.2,15.6,6.3,25.5,11,33.1h22C30,32.4,26,29.1,31.6,23.6z"/>
<path fill="#F35142" d="M52,43.1c0.8,0,1.5,0.8,2.2,1.9c2.6,4.3,2.6,9.8,0,14.1c-0.7,1.1-1.4,1.9-2.2,1.9c5,0,9-4,9-9
	c0-1.5-0.4-3-1.1-4.3v0v0C58.4,45.1,55.4,43.1,52,43.1z"/>
<path fill="#F35142" d="M49.8,59.2c-2.6-4.3-2.6-9.8,0-14.1c0.7-1.1,1.4-1.9,2.2-1.9c-5,0-9,4-9,9c0,1.9,0.6,3.6,1.5,5l0,0l0,0
	c1.6,2.4,4.4,4,7.5,4C51.2,61.1,50.5,60.3,49.8,59.2z"/>
<path fill="#FFECEB" d="M54.2,59.2c2.6-4.3,2.6-9.8,0-14.1c-0.7-1.1-1.4-1.9-2.2-1.9s-1.5,0.8-2.2,1.9c-2.6,4.3-2.6,9.8,0,14.1
	c0.7,1.1,1.4,1.9,2.2,1.9S53.5,60.3,54.2,59.2z"/>
<path fill="#FCCFCF" d="M61,37.1c0-2.2-1.8-4-4-4H7c-2.2,0-4,1.8-4,4c0,2.2,1.8,4,4,4h50C59.2,41.1,61,39.4,61,37.1z"/>
<path fill="#A2DCF5" d="M49.7,13c0,0,6.6,4.7,7.1-0.3C57.3,7.7,49.7,13,49.7,13z"/>
<path fill="#A2DCF5" d="M39,8.1c0,0,7-1,4-4S39,8.1,39,8.1z"/>
<path fill="#71CAF0" d="M29.7,31.1h-3.6c-12.4,0-19.2-14.7-10.9-24c0.1-0.1,0.1-0.1,0.2-0.2c-0.2,0.1-0.4,0.2-0.5,0.4L13.4,9
	C7.2,15.6,6.3,25.5,11,33.1h22C31.8,32.8,30.5,32.2,29.7,31.1z"/>
<path fill="#71CAF0" d="M50.7,24.6c-0.6-1.2-1.5-2.2-2.6-3c0.2,0.3,0.4,0.6,0.6,1c0.8,1.6,1.1,3.5,0.8,5.3v0
	c-0.3,1.9-1.9,3.2-3.8,3.2h-7.9c-1.1,1-2.3,1.8-3.4,2H51l0.5-3.2C51.8,28.1,51.6,26.3,50.7,24.6z"/>
<path fill="#ED8D8D" d="M57,39.1H7c-1.9,0-3.4-1.3-3.9-3c-0.1,0.3-0.1,0.7-0.1,1c0,2.2,1.8,4,4,4h50c2.2,0,4-1.8,4-4
	c0-0.3-0.1-0.7-0.1-1C60.4,37.9,58.9,39.1,57,39.1z"/>
<path fill="#BD3F33" d="M54.8,58.1c-0.2,0.4-0.4,0.7-0.6,1.1c-0.7,1.1-1.4,1.9-2.2,1.9s-1.5-0.8-2.2-1.9c-0.5-0.9-0.9-1.8-1.2-2.7
	c-2.7-1.8-4.6-4.9-4.6-8.4c0-0.8,0.1-1.6,0.3-2.4c-1.4,1.7-2.3,4-2.3,6.4c0,5.5,4.5,10,10,10c4.7,0,8.6-3.3,9.7-7.6
	C60,56.5,57.6,57.9,54.8,58.1z"/>
<path fill="#EBD9D8" d="M54,58.1c-2,0-3.9-0.6-5.4-1.6c0.3,0.9,0.7,1.8,1.2,2.7c0.7,1.1,1.4,1.9,2.2,1.9s1.5-0.8,2.2-1.9
	c0.2-0.4,0.4-0.7,0.6-1.1C54.5,58.1,54.3,58.1,54,58.1z"/>
<path d="M62,37c0-2.8-2.2-5-5-5h-4.8l0.3-2.1c0.3-2,0-4-0.9-5.9c-1.3-2.5-3.5-4.2-6.3-4.8c-0.6-0.1-1.2,0-1.6,0.4
	C43.3,20,43,20.6,43,21.2c0,0.9,0.6,1.6,1.4,1.9c1,0.3,1.6,1.3,1.6,2.9c0,0.6-0.2,1.1-0.5,1.4C45,28,44.3,27.8,44,27.7
	c-0.5-0.2-1-0.7-1-1.5V26c0-0.4-0.3-0.8-0.7-1c-0.4-0.1-0.9,0.1-1.1,0.4c-1,1.7-4.2,5.9-6.8,6.5h-1.2c-1.3-0.3-2.9-1.2-3.3-2.7
	c-0.4-1.4,0.5-3.2,2.5-5.2c0.5-0.5,0.6-1.1,0.3-1.7c-0.3-0.8-1.3-1.4-2.2-1.4c-0.5,0-1.1,0.2-1.5,0.6c-2.1,1.9-4.1,3-5.2,2.8
	c-0.2,0-0.6-0.2-0.9-0.8c-1.3-2.6,2.7-6.2,4-7.2c0.6-0.5,1.2-1,1.8-1.6l3-3c0.9-0.9,1.3-2,1.3-3.3c0-1.2-0.5-2.3-1.3-3.2
	c-0.8-0.8-2-1.3-3.2-1.3c0,0,0,0,0,0h-0.6c-1.8,0-3.4,1.2-3.8,3c-0.7,2.9-2.2,5.5-4.4,7.6L19.2,15c-0.1,0-0.1,0.1-0.1,0.2
	c-0.3,0.5-0.9,0.7-1.5,0.6c-0.5-0.1-0.8-0.4-1-0.8c-0.2-0.4-0.2-0.9,0.1-1.3l2.1-3.4C19.7,8.8,19.3,7,18,6.1
	c-1.2-0.8-2.8-0.6-3.8,0.5l-1.5,1.6c-6,6.5-7.3,16.1-3.4,23.9H7c-2.8,0-5,2.2-5,5c0,1.6,0.8,3.1,2,4c-1.2,0.9-2,2.4-2,4s0.8,3.1,2,4
	c-1.2,0.9-2,2.4-2,4c0,2.8,2.2,5,5,5h37c1.8,2.4,4.7,4,8,4c5.5,0,10-4.5,10-10c0-1.5-0.3-2.9-0.9-4.2C61.7,47,62,46,62,45
	c0-1.6-0.8-3.1-2-4C61.2,40.1,62,38.6,62,37z M41.6,28.3c0.4,0.6,0.9,1,1.6,1.3c1.3,0.5,2.7,0.3,3.7-0.7c0.7-0.7,1.1-1.7,1.1-2.9
	c0-3.5-2.1-4.6-3-4.8c2.1,0.4,3.9,1.8,4.9,3.7c0.7,1.4,1,3.1,0.7,4.7L50.2,32H38.2C39.6,30.8,40.8,29.4,41.6,28.3z M14.1,9.5
	l1.5-1.6c0.3-0.4,0.9-0.4,1.3-0.1c0.4,0.3,0.6,0.9,0.3,1.3L15,12.5c-0.6,1-0.7,2.1-0.2,3.2c0.4,1,1.4,1.8,2.5,2
	c1.3,0.3,2.6-0.2,3.4-1.3L21,16c2.5-2.3,4.3-5.3,5-8.6C26.3,6.6,27,6,27.9,6h0.6c0,0,0,0,0,0c0.7,0,1.3,0.3,1.7,0.7
	C30.7,7.2,31,7.8,31,8.5c0,0.7-0.3,1.3-0.7,1.8l-3,3c-0.5,0.5-1,1-1.6,1.4c-2,1.6-6.4,5.8-4.5,9.6c0.7,1.3,1.6,1.7,2.3,1.9
	c2.4,0.4,5.4-1.9,6.9-3.3c0.1-0.1,0.1-0.1,0.3,0c-2.3,2.4-3.2,4.7-2.7,6.8c0.2,0.8,0.7,1.6,1.3,2.2H11.6C7.4,24.8,8.4,15.6,14.1,9.5
	z M4,45c0-1.7,1.3-3,3-3h44.8c-0.1,0-0.1,0-0.2,0c-3.9,0.2-7.3,2.6-8.7,6H7C5.3,48,4,46.7,4,45z M53.4,45.5c2.4,4,2.4,9.1,0,13.1
	C52.5,60,52,60,52,60s-0.5,0-1.4-1.5c-2.4-4-2.4-9.1,0-13.1C51.5,44,52,44,52,44S52.5,44,53.4,45.5z M7,56c-1.7,0-3-1.3-3-3
	s1.3-3,3-3h35.2c-0.1,0.6-0.2,1.3-0.2,2c0,1.4,0.3,2.8,0.8,4H7z M44,52c0-3.3,2-6.1,4.8-7.3c-2.6,4.5-2.6,10.2,0,14.6
	C46,58.1,44,55.3,44,52z M55.2,59.3c2.6-4.5,2.6-10.2,0-14.6C58,45.9,60,48.7,60,52S58,58.1,55.2,59.3z M60,45
	c0,0.3-0.1,0.6-0.1,0.8c-1.8-2.2-4.4-3.7-7.5-3.8c-0.1,0-0.1,0-0.2,0H57C58.7,42,60,43.3,60,45z M57,40H7c-1.7,0-3-1.3-3-3
	s1.3-3,3-3h50c1.7,0,3,1.3,3,3S58.7,40,57,40z"/>
<path d="M49.1,12.1c-0.3,0.2-0.4,0.5-0.4,0.8s0.2,0.6,0.4,0.8c0.6,0.4,3.2,2.2,5.4,2.2c0.5,0,1-0.1,1.4-0.3c0.7-0.3,1.6-1.1,1.8-2.9
	c0.2-1.8-0.5-2.5-1.1-2.9C54.5,8.5,50.4,11.2,49.1,12.1z M55.8,12.5c-0.1,1.1-0.5,1.2-0.6,1.3c-0.8,0.3-2.3-0.2-3.6-0.9
	c1.7-1,3.5-1.7,4-1.4C55.7,11.6,55.8,11.9,55.8,12.5z"/>
<path d="M40.9,2.4c-2.1,0.7-2.7,4.4-2.9,5.5c0,0.3,0.1,0.6,0.3,0.8C38.5,8.9,38.7,9,39,9c0,0,0.1,0,0.1,0c1.1-0.2,4.8-0.8,5.5-2.9
	c0.2-0.6,0.2-1.6-0.9-2.8C42.6,2.1,41.6,2.1,40.9,2.4z M41.6,4.3c0.1,0,0.4,0.1,0.7,0.5c0.4,0.4,0.5,0.6,0.4,0.7
	c-0.1,0.4-1.2,0.9-2.5,1.3C40.6,5.5,41.1,4.4,41.6,4.3C41.6,4.3,41.6,4.3,41.6,4.3z"/>
</svg>
